<svg xmlns="http://www.w3.org/2000/svg" width="424.264" height="424.264" viewBox="0 0 424.264 424.264"><g transform="translate(0 0)"><g transform="translate(-1057.336 -327.868)"><rect width="300" height="300" rx="30" transform="translate(1481.6 540) rotate(135)" fill="#c4f9ae"/><path d="M30,1A28.975,28.975,0,0,0,1,30V270a28.975,28.975,0,0,0,29,29H270a28.975,28.975,0,0,0,29-29V30A28.975,28.975,0,0,0,270,1H30m0-1H270a30,30,0,0,1,30,30V270a30,30,0,0,1-30,30H30A30,30,0,0,1,0,270V30A30,30,0,0,1,30,0Z" transform="translate(1481.6 540) rotate(135)" fill="#707070"/></g></g></svg>