<svg xmlns="http://www.w3.org/2000/svg" xmlns:xlink="http://www.w3.org/1999/xlink" width="424.264" height="424.264" viewBox="0 0 424.264 424.264"><defs><linearGradient id="a" x1="0.486" y1="0.013" x2="0.5" y2="1" gradientUnits="objectBoundingBox"><stop offset="0" stop-color="#5b7a71" stop-opacity="0.31"/><stop offset="1" stop-color="#b0cea5"/><stop offset="1" stop-color="gray"/></linearGradient></defs><g transform="translate(0 0)"><g transform="translate(-1057.336 -327.868)"><rect width="300" height="300" rx="30" transform="translate(1481.6 540) rotate(135)" fill="url(#a)"/><path d="M30,1A28.975,28.975,0,0,0,1,30V270a28.975,28.975,0,0,0,29,29H270a28.975,28.975,0,0,0,29-29V30A28.975,28.975,0,0,0,270,1H30m0-1H270a30,30,0,0,1,30,30V270a30,30,0,0,1-30,30H30A30,30,0,0,1,0,270V30A30,30,0,0,1,30,0Z" transform="translate(1481.6 540) rotate(135)" fill="#707070"/></g></g></svg>