<svg xmlns="http://www.w3.org/2000/svg" xmlns:xlink="http://www.w3.org/1999/xlink" width="257" height="194" viewBox="0 0 257 194"><defs><linearGradient id="a" x1="0.5" x2="0.5" y2="0.403" gradientUnits="objectBoundingBox"><stop offset="0" stop-color="#bdd9b7"/><stop offset="1" stop-color="#7a9f71"/></linearGradient><linearGradient id="b" x1="0.963" y1="0.5" x2="0" y2="0.5" xlink:href="#a"/></defs><g transform="translate(-50 -53)"><g transform="translate(111.279 53)"><circle cx="97" cy="97" r="97" transform="translate(193.721) rotate(90)" fill="url(#a)"/><ellipse cx="90" cy="90.5" rx="90" ry="90.5" transform="translate(187.721 7) rotate(90)" fill="#0a382b"/></g><path d="M-.368,0H65.167V7.66L-2.47,7.555Z" transform="translate(235.057 170.302)" fill="url(#b)"/><path d="M-.373,7.511H64.992V0L-2.47.1Z" transform="translate(235.461 123.088)" fill="url(#b)"/><path d="M97,8a89,89,0,1,0,89,89A89.1,89.1,0,0,0,97,8m0-8A97,97,0,1,1,0,97,97,97,0,0,1,97,0Z" transform="translate(50 53)" fill="#7a9f71"/><rect width="123" height="41" transform="translate(184 130)" fill="#0a382b"/></g></svg>