<svg xmlns="http://www.w3.org/2000/svg" xmlns:xlink="http://www.w3.org/1999/xlink" width="180" height="132" viewBox="0 0 180 132"><defs><linearGradient id="a" x1="0.5" x2="0.5" y2="0.403" gradientUnits="objectBoundingBox"><stop offset="0" stop-color="#bdd9b7"/><stop offset="1" stop-color="#7a9f71"/></linearGradient><linearGradient id="b" x1="0.963" y1="0.5" x2="0" y2="0.5" xlink:href="#a"/></defs><ellipse cx="66" cy="68" rx="66" ry="68" transform="translate(179) rotate(90)" fill="url(#a)"/><ellipse cx="61.5" cy="63" rx="61.5" ry="63" transform="translate(174 5) rotate(90)" fill="#22594e"/><path d="M-.994,0H45.028V5.22l-47.5-.072Z" transform="translate(130.69 79.936)" fill="url(#b)"/><path d="M-1,5.118H44.9V0L-2.47.07Z" transform="translate(130.975 47.762)" fill="url(#b)"/><path d="M68,4.7A64.67,64.67,0,0,0,43.316,9.535,63.558,63.558,0,0,0,23.19,22.7a62.234,62.234,0,0,0-7.719,9.08,60.708,60.708,0,0,0-5.818,10.4,59.725,59.725,0,0,0,0,47.625,60.708,60.708,0,0,0,5.818,10.4,62.235,62.235,0,0,0,7.719,9.08,63.558,63.558,0,0,0,20.126,13.169,65.432,65.432,0,0,0,49.368,0A63.559,63.559,0,0,0,112.81,109.3a62.237,62.237,0,0,0,7.719-9.08,60.708,60.708,0,0,0,5.818-10.4,59.725,59.725,0,0,0,0-47.625,60.708,60.708,0,0,0-5.818-10.4,62.236,62.236,0,0,0-7.719-9.08A63.559,63.559,0,0,0,92.684,9.535,64.67,64.67,0,0,0,68,4.7M68,0c37.555,0,68,29.549,68,66s-30.445,66-68,66S0,102.451,0,66,30.445,0,68,0Z" fill="#7a9f71"/><rect width="86" height="29" transform="translate(94 52)" fill="#22594e"/></svg>