<svg xmlns="http://www.w3.org/2000/svg" width="267.582" height="95.375" viewBox="0 0 267.582 95.375"><defs><style>.a{fill:#0a382b;}</style></defs><path class="a" d="M-59.02-36.187H-46.6a39.675,39.675,0,0,1,6.809.5,16.251,16.251,0,0,1,5.043,1.674,9.534,9.534,0,0,1,3.47,3.194,12.755,12.755,0,0,1,1.654,4.137,26.34,26.34,0,0,1,.551,4.775c.051,1.623.076,3.442.076,5.406s-.026,3.783-.076,5.406a26.34,26.34,0,0,1-.551,4.775A12.755,12.755,0,0,1-31.28-2.181a9.534,9.534,0,0,1-3.47,3.194,16.25,16.25,0,0,1-5.043,1.674,39.674,39.674,0,0,1-6.809.5H-59.02a39.676,39.676,0,0,1-6.809-.5,16.251,16.251,0,0,1-5.043-1.674A9.629,9.629,0,0,1-74.345-2.17a12.609,12.609,0,0,1-1.672-4.149,25.765,25.765,0,0,1-.54-4.787c-.043-1.619-.065-3.434-.065-5.4s.022-3.776.065-5.4a25.765,25.765,0,0,1,.54-4.786,12.609,12.609,0,0,1,1.672-4.149,9.629,9.629,0,0,1,3.473-3.182,16.252,16.252,0,0,1,5.043-1.674A39.675,39.675,0,0,1-59.02-36.187ZM-46.6-5.25c1.74,0,3.218-.051,4.395-.152a8.528,8.528,0,0,0,2.383-.483,1.751,1.751,0,0,0,.8-.562,3.767,3.767,0,0,0,.542-1.471,20.279,20.279,0,0,0,.308-3.326c.035-1.455.053-3.224.053-5.257s-.018-3.8-.053-5.257a20.277,20.277,0,0,0-.308-3.326,3.767,3.767,0,0,0-.542-1.471,1.755,1.755,0,0,0-.795-.565,8.244,8.244,0,0,0-2.365-.48c-1.177-.1-2.663-.152-4.416-.152H-59.02c-1.754,0-3.24.051-4.416.152a8.527,8.527,0,0,0-2.383.483,1.751,1.751,0,0,0-.8.562,3.767,3.767,0,0,0-.542,1.471,19.654,19.654,0,0,0-.3,3.314c-.028,1.459-.043,3.232-.043,5.269s.018,3.8.053,5.257a20.283,20.283,0,0,0,.308,3.326,3.874,3.874,0,0,0,.542,1.486,1.685,1.685,0,0,0,.776.546,8.529,8.529,0,0,0,2.382.483c1.177.1,2.663.152,4.416.152ZM-19.677-35.5h9.125v19c0,2.033.018,3.8.053,5.257a20.279,20.279,0,0,0,.308,3.326,3.874,3.874,0,0,0,.542,1.486,1.685,1.685,0,0,0,.776.546A8.528,8.528,0,0,0-6.49-5.4c1.177.1,2.663.152,4.416.152H7.595C9.335-5.25,10.817-5.3,12-5.4a8.27,8.27,0,0,0,2.374-.48,1.754,1.754,0,0,0,.795-.564,3.875,3.875,0,0,0,.556-1.487,18.83,18.83,0,0,0,.3-3.3c.028-1.459.042-3.232.042-5.269l-.025-19H25.2v19c0,1.965-.026,3.784-.076,5.406a26.335,26.335,0,0,1-.551,4.775,12.755,12.755,0,0,1-1.654,4.137,9.535,9.535,0,0,1-3.47,3.194A16.252,16.252,0,0,1,14.4,2.687a39.675,39.675,0,0,1-6.809.5H-2.073a39.676,39.676,0,0,1-6.809-.5,16.252,16.252,0,0,1-5.043-1.674A9.629,9.629,0,0,1-17.4-2.17a12.608,12.608,0,0,1-1.672-4.149,25.764,25.764,0,0,1-.54-4.787c-.043-1.618-.065-3.433-.065-5.4Zm54.175,0H76.623v8.438h-16.5V2.5H51V-27.062H34.5Zm-150,55.313h9.646a46.908,46.908,0,0,1,5.724.309,21.886,21.886,0,0,1,4.517,1,11.574,11.574,0,0,1,3.53,1.921,9.553,9.553,0,0,1,2.366,2.877,11.482,11.482,0,0,1,1.175,3.54,23.587,23.587,0,0,1,.292,3.848v2.5h-9.125v-2.5a9.527,9.527,0,0,0-.4-3.212,1.822,1.822,0,0,0-.79-1,5.917,5.917,0,0,0-2.353-.645c-1.305-.134-2.965-.2-4.933-.2H-115.5c-1.754,0-3.24.051-4.416.152a8.528,8.528,0,0,0-2.383.483,1.751,1.751,0,0,0-.8.562,3.766,3.766,0,0,0-.542,1.471,19.644,19.644,0,0,0-.3,3.314c-.028,1.459-.043,3.232-.043,5.269s.018,3.8.053,5.257a20.283,20.283,0,0,0,.308,3.326,3.874,3.874,0,0,0,.542,1.486,1.685,1.685,0,0,0,.776.546,8.529,8.529,0,0,0,2.382.483c1.177.1,2.663.152,4.416.152h9.646c1.535,0,2.868-.041,3.962-.122a12.936,12.936,0,0,0,2.474-.386,3.075,3.075,0,0,0,1.09-.49,1.592,1.592,0,0,0,.461-.605,4.887,4.887,0,0,0,.359-1.441A23.686,23.686,0,0,0-97.375,45V42.5h9.125V45a27.1,27.1,0,0,1-.287,4.11,12.454,12.454,0,0,1-1.151,3.708,9.763,9.763,0,0,1-2.35,3.013,11.358,11.358,0,0,1-3.547,2.013,20.917,20.917,0,0,1-4.544,1.035,46.908,46.908,0,0,1-5.724.309H-115.5a39.675,39.675,0,0,1-6.809-.5,16.252,16.252,0,0,1-5.043-1.674,9.629,9.629,0,0,1-3.473-3.182,12.609,12.609,0,0,1-1.672-4.148,25.767,25.767,0,0,1-.54-4.787c-.043-1.619-.065-3.434-.065-5.4s.022-3.776.065-5.4a25.766,25.766,0,0,1,.54-4.786,12.61,12.61,0,0,1,1.672-4.149,9.629,9.629,0,0,1,3.473-3.182,16.252,16.252,0,0,1,5.043-1.674A39.674,39.674,0,0,1-115.5,19.813Zm129.5,0H23.65a46.909,46.909,0,0,1,5.724.309,21.885,21.885,0,0,1,4.517,1,11.575,11.575,0,0,1,3.53,1.921,9.553,9.553,0,0,1,2.366,2.877,11.482,11.482,0,0,1,1.175,3.54,23.587,23.587,0,0,1,.292,3.848v2.5H32.129v-2.5a9.527,9.527,0,0,0-.4-3.212,1.822,1.822,0,0,0-.79-1,5.917,5.917,0,0,0-2.353-.645c-1.305-.134-2.965-.2-4.933-.2H14c-1.754,0-3.24.051-4.416.152a8.529,8.529,0,0,0-2.383.483,1.752,1.752,0,0,0-.8.562,3.768,3.768,0,0,0-.542,1.471,19.648,19.648,0,0,0-.3,3.314c-.028,1.459-.043,3.232-.043,5.269s.018,3.8.053,5.257a20.279,20.279,0,0,0,.308,3.326,3.874,3.874,0,0,0,.542,1.486,1.685,1.685,0,0,0,.776.546,8.528,8.528,0,0,0,2.383.483c1.177.1,2.663.152,4.416.152H23.65c1.535,0,2.868-.041,3.962-.122a12.935,12.935,0,0,0,2.474-.386,3.076,3.076,0,0,0,1.09-.49,1.592,1.592,0,0,0,.46-.605A4.887,4.887,0,0,0,32,47.705,23.671,23.671,0,0,0,32.129,45V42.5h9.125V45a27.1,27.1,0,0,1-.287,4.11,12.455,12.455,0,0,1-1.151,3.708,9.762,9.762,0,0,1-2.35,3.013,11.358,11.358,0,0,1-3.547,2.013,20.918,20.918,0,0,1-4.544,1.035,46.909,46.909,0,0,1-5.724.309H14a39.675,39.675,0,0,1-6.809-.5,16.251,16.251,0,0,1-5.043-1.674A9.63,9.63,0,0,1-1.322,53.83a12.608,12.608,0,0,1-1.672-4.149,25.763,25.763,0,0,1-.54-4.786c-.043-1.618-.065-3.433-.065-5.4s.022-3.777.065-5.4a25.766,25.766,0,0,1,.54-4.786A12.609,12.609,0,0,1-1.322,25.17a9.629,9.629,0,0,1,3.473-3.182,16.251,16.251,0,0,1,5.043-1.674A39.675,39.675,0,0,1,14,19.813Zm-91.578.688h9.125v38h-9.125Zm21.175,0h25.854a66.043,66.043,0,0,1,6.628.282,24.008,24.008,0,0,1,4.776.91,9.663,9.663,0,0,1,3.483,1.829,7.233,7.233,0,0,1,2.02,2.846,10.327,10.327,0,0,1,.661,3.174c.053.931.079,1.968.079,3.084a22.541,22.541,0,0,1-.332,4.078,10.062,10.062,0,0,1-1.318,3.524,7.658,7.658,0,0,1-1.161,1.436,6.9,6.9,0,0,1,.9,1.287,9.489,9.489,0,0,1,1.023,3.321,28.064,28.064,0,0,1,.2,3.542V58.5h-9.125V49.813c0-.957-.017-1.787-.051-2.465A3.281,3.281,0,0,0-22.95,46.3a.266.266,0,0,0-.105-.141,2.8,2.8,0,0,0-.959-.323,18.329,18.329,0,0,0-2.718-.3c-1.2-.062-2.719-.093-4.5-.093H-47.275V58.5H-56.4Zm34.184,9.065-.012-.008a3.338,3.338,0,0,0-1.037-.307A19.45,19.45,0,0,0-26,29c-1.219-.042-2.748-.063-4.544-.063H-47.275V37h16.729c1.782,0,3.3-.031,4.5-.093a18.332,18.332,0,0,0,2.718-.3,2.8,2.8,0,0,0,.959-.323.266.266,0,0,0,.105-.141,3.282,3.282,0,0,0,.187-1.048c.034-.679.051-1.508.051-2.465,0-.883-.017-1.648-.05-2.273A2.386,2.386,0,0,0-22.216,29.565ZM51.929,20.5h9.125V50.063H87.178V58.5H51.929Zm44.55,0h38v8.438H105.6v6h27.5v8.438H105.6v6.688h28.875V58.5h-38Z" transform="translate(133.104 36.188)"/></svg>